<?xml version="1.0" encoding="UTF-8"?>
<svg id="Layer_1" xmlns="http://www.w3.org/2000/svg" version="1.1" viewBox="0 0 283.46 283.46">
  <!-- Generator: Adobe Illustrator 30.0.0, SVG Export Plug-In . SVG Version: 2.1.1 Build 123)  -->
  <defs>
    <style>
      .st0 {
        fill: #231f20;
      }

      .st1 {
        fill: #72bf44;
      }

      .st1, .st2, .st3, .st4 {
        fill-rule: evenodd;
      }

      .st2 {
        fill: #149b9e;
      }

      .st3 {
        fill: #6e408d;
      }

      .st4 {
        fill: #ede937;
      }
    </style>
  </defs>
  <g>
    <path class="st3" d="M85.65,54.64h53.87v54.41h-3.08l-5.76-10.99h-3.31l5.76,10.99h-47.49v-54.41ZM111.6,66.36h3.31v33.94h-3.31v-33.94Z"/>
    <polygon class="st1" points="143.94 54.64 169.26 54.64 169.26 88.66 172.57 88.66 172.57 54.64 197.82 54.64 197.82 109.06 143.94 109.06 143.94 54.64"/>
    <path class="st4" d="M85.65,113.52h53.87v54.41h-53.87v-54.41ZM123.75,132.48v3.35h-22.09v-3.35h22.09ZM123.75,150.25v3.35h-22.09v-3.35h22.09Z"/>
    <polygon class="st2" points="143.94 113.52 197.82 113.52 197.82 132.72 176.36 132.72 176.36 136.07 197.82 136.07 197.82 150.25 176.36 150.25 176.36 153.59 197.82 153.59 197.82 167.93 143.94 167.93 143.94 113.52"/>
  </g>
  <g>
    <g>
      <path class="st0" d="M116.63,196.42c0,4.53-2.37,8.03-6.3,9.85l7.02-.09v6.09h-15.6c-9.39,0-15.94-5.92-15.94-14.63s6.6-14.63,15.56-14.63,15.27,5.37,15.27,13.41ZM93.04,197.64c0,4.99,3.09,8.5,8.33,8.5s8.33-3.47,8.33-8.5-3.09-8.5-8.33-8.5-8.33,3.64-8.33,8.5Z"/>
      <path class="st0" d="M145.73,200.73c0,7.66-4.73,12.05-12.64,12.05s-12.64-4.52-12.64-12.05v-17.21h6.85v16.96c0,3.72,1.61,6.17,5.79,6.17s5.75-2.37,5.75-6.17v-16.96h6.89v17.21Z"/>
      <path class="st0" d="M162.56,183.52c6.64,0,9.94,2.62,9.94,6.81,0,2.54-1.65,5.12-4.69,6.17,3.89,1.27,5.75,3.98,5.75,7.06,0,5.33-3.89,8.71-10.15,8.71h-13.02v-28.76h12.18ZM157.32,194.73h4.53c2.24,0,3.51-.97,3.51-2.71s-1.14-2.67-3.51-2.67h-4.53v5.37ZM157.32,206.44h5.5c2.33,0,3.6-1.44,3.6-3.3s-1.27-3.34-3.81-3.34h-5.29v6.64Z"/>
      <path class="st0" d="M197.36,189.52h-13.11v5.37h12.43v5.8h-12.43v5.58h13.41v6.01h-20.34v-28.76h20.05v6.01Z"/>
    </g>
    <g>
      <path class="st0" d="M94.12,218.29c-.66-.64-1.34-.94-2.33-.94-1.07,0-1.58.54-1.58,1.33s.59,1.21,2.17,1.87c1.89.82,2.66,1.6,2.66,2.86,0,1.57-1.21,2.69-3.08,2.69-1.22,0-2.11-.32-3.1-.89v-1.41c.84.69,1.89,1.22,3.04,1.22,1.28,0,1.94-.61,1.94-1.6,0-.78-.47-1.19-2.01-1.83-2-.86-2.82-1.62-2.82-2.9,0-1.4,1.13-2.36,2.81-2.36,1.23,0,2.15.35,2.98,1.03l-.67.93Z"/>
      <path class="st0" d="M101.97,219.55v6.38h-1.08v-1.29c-.39.82-1.23,1.43-2.13,1.43-1.26,0-2.02-.87-2.02-2.26v-4.26h1.09v4.02c0,1.08.37,1.55,1.21,1.55s1.54-.71,1.85-1.59v-3.98h1.08Z"/>
      <path class="st0" d="M105.06,219.55v1.43c.45-.97,1.23-1.57,2.12-1.57.31,0,.65.07.88.17l-.32,1.17h-.05c-.22-.13-.5-.23-.8-.23-.84,0-1.53.59-1.82,1.59v3.83h-1.09v-6.38h1.09Z"/>
      <path class="st0" d="M113.33,216.97c-1.69-.08-2.24.19-2.24,1.62v.96h1.51v.87h-1.51v5.51h-1.09v-5.51h-1.05v-.4l1.05-.58v-.72c0-1.8.75-2.82,3.21-2.65l.12.9Z"/>
      <path class="st0" d="M113.65,219.91c.8-.33,1.57-.5,2.39-.5,1.57,0,2.44.72,2.44,2.18v4.34h-1.07v-1.11c-.51.79-1.35,1.25-2.25,1.25-1.2,0-1.84-.68-1.84-1.58,0-1.46,1.34-2.29,4.09-2.51v-.35c0-.94-.45-1.28-1.54-1.28-.76,0-1.58.21-2.23.61v-1.05ZM117.42,222.73c-2.08.21-2.97.69-2.97,1.66,0,.54.28.87.96.87,1.04,0,1.83-.81,2.01-1.8v-.74Z"/>
      <path class="st0" d="M125.01,221.08c-.5-.54-1.09-.78-1.77-.78-1.31,0-1.92,1.1-1.92,2.44s.66,2.39,2.03,2.39c.7,0,1.61-.32,2.17-.76h.03v1.05c-.62.4-1.49.65-2.31.65-1.84,0-3.01-1.32-3.01-3.33s1.24-3.33,3.01-3.33c.91,0,1.61.22,2.32.78l-.55.89Z"/>
      <path class="st0" d="M132.62,222.83l-.16.17h-4.45c.04,1.22.65,2.14,1.92,2.14.72,0,1.55-.29,2.12-.74l.05.02v1.03c-.64.39-1.44.64-2.28.64-1.82,0-2.9-1.32-2.9-3.33s1.19-3.33,3.01-3.33,2.87,1.32,2.7,3.41ZM131.51,222.18c.04-1.19-.55-1.91-1.59-1.91-1.16,0-1.77.83-1.89,1.91h3.48Z"/>
      <path class="st0" d="M138.55,220.16l-.57.87c-.46-.49-1.12-.73-1.82-.73-.75,0-1.16.23-1.16.72s.34.71,1.51,1.14c1.65.64,2.21,1.12,2.21,2.11,0,1.04-.96,1.8-2.38,1.8-.84,0-1.75-.22-2.5-.58v-1.12c.61.43,1.71.76,2.5.76.93,0,1.3-.25,1.3-.83,0-.49-.58-.79-1.62-1.17-1.48-.53-2.1-1.08-2.1-2.03s.92-1.69,2.23-1.69c.88,0,1.71.22,2.4.75Z"/>
      <path class="st0" d="M150.75,224.96v.98c-.43.07-.75.1-.98.1-.29,0-.52-.05-.7-.14-.17-.1-.44-.33-.8-.7-.42.35-.81.59-1.16.73-.35.14-.75.2-1.22.2-.66,0-1.25-.15-1.77-.46-.5-.29-.87-.73-1.1-1.32-.12-.31-.19-.63-.19-.97,0-.65.2-1.21.61-1.7.4-.49.98-.86,1.72-1.13-.57-.86-.86-1.56-.86-2.1,0-.42.12-.79.35-1.13.37-.54.93-.81,1.67-.81.58,0,1.07.17,1.45.5.42.36.63.85.63,1.48,0,.51-.14.95-.43,1.31-.29.36-.78.72-1.47,1.08l1.9,2.95c.61-.8,1.02-1.78,1.22-2.95l.95.21c-.12.63-.33,1.25-.62,1.86-.29.61-.64,1.14-1.03,1.6.18.19.34.32.47.38.13.06.31.1.53.1.13,0,.4-.02.82-.07ZM145.61,221.24c-.48.22-.85.44-1.09.66-.37.34-.56.81-.56,1.42,0,.5.12.9.36,1.21.17.22.41.39.71.52.3.13.62.19.95.19.36,0,.67-.05.93-.16s.54-.3.84-.58l-2.15-3.26ZM146.06,220.21c.18-.11.32-.19.41-.24.39-.23.67-.45.84-.67.17-.22.25-.47.25-.75,0-.3-.1-.57-.29-.79-.23-.26-.53-.39-.89-.39-.31,0-.57.1-.79.3-.21.2-.32.44-.32.73,0,.22.05.43.15.66s.31.61.64,1.15Z"/>
      <path class="st0" d="M158.51,216.5c1.88,0,2.85.85,2.85,2.19,0,.96-.59,1.71-1.54,2.05,1.22.35,1.9,1.33,1.9,2.5,0,1.53-1.13,2.69-2.92,2.69h-3.45v-9.43h3.16ZM156.48,220.39h1.93c1.05,0,1.76-.53,1.76-1.51,0-.92-.62-1.39-1.88-1.39h-1.81v2.9ZM156.48,224.95h2.12c1.23,0,1.93-.72,1.93-1.76,0-1.11-.7-1.82-2.05-1.82h-2v3.58Z"/>
      <path class="st0" d="M168.99,222.83l-.16.17h-4.45c.04,1.22.65,2.14,1.92,2.14.72,0,1.55-.29,2.12-.74l.05.02v1.03c-.64.39-1.44.64-2.28.64-1.82,0-2.9-1.32-2.9-3.33s1.19-3.33,3.01-3.33,2.87,1.32,2.7,3.41ZM167.88,222.18c.04-1.19-.55-1.91-1.59-1.91-1.16,0-1.77.83-1.89,1.91h3.48Z"/>
      <path class="st0" d="M172.1,228.82h-1.07l1.36-3.22-2.5-6.05h1.26l1.83,4.73,1.74-4.73h1.08l-3.71,9.27Z"/>
      <path class="st0" d="M183.03,222.7c0,1.94-1.32,3.37-3.13,3.37s-3.12-1.43-3.12-3.37,1.28-3.29,3.12-3.29,3.13,1.37,3.13,3.29ZM177.88,222.7c0,1.54.8,2.43,2.01,2.43s2.02-.89,2.02-2.43-.81-2.35-2.02-2.35-2.01.87-2.01,2.35Z"/>
      <path class="st0" d="M185.9,219.55v1.29c.42-.82,1.28-1.43,2.16-1.43,1.12,0,2.04.78,2.04,2.26v4.26h-1.08v-4.02c0-1.08-.39-1.55-1.24-1.55s-1.57.71-1.88,1.6v3.98h-1.09v-6.38h1.09Z"/>
      <path class="st0" d="M197.66,216.09v9.85h-1.09v-1.29c-.4.85-1.24,1.43-2.12,1.43-1.65,0-2.6-1.21-2.6-3.33s.96-3.33,2.6-3.33c.88,0,1.71.58,2.12,1.43v-4.76h1.09ZM192.98,222.74c0,1.74.63,2.39,1.77,2.39.85,0,1.51-.71,1.82-1.59v-1.58c-.31-.89-.99-1.6-1.84-1.6-1.13,0-1.75.75-1.75,2.39Z"/>
    </g>
  </g>
</svg>